PathFileType	4	(X/Y/Z)	markers.trc
DataRate	CameraRate	NumFrames	NumMarkers	Units	OrigDataRate	OrigDataStartFrame	OrigNumFrames
59.94	59.94	23	12	m	59.94	254	507
Frame#	Time	LEFT_SHOULDER			RIGHT_SHOULDER			LEFT_HIP			RIGHT_HIP			LEFT_KNEE			RIGHT_KNEE			LEFT_ANKLE			RIGHT_ANKLE			LEFT_HEEL			RIGHT_HEEL			LEFT_FOOT_INDEX			RIGHT_FOOT_INDEX		
		X1	Y1	Z1	X2	Y2	Z2	X3	Y3	Z3	X4	Y4	Z4	X5	Y5	Z5	X6	Y6	Z6	X7	Y7	Z7	X8	Y8	Z8	X9	Y9	Z9	X10	Y10	Z10	X11	Y11	Z11	X12	Y12	Z12

254	4.220883	4.568167	1.976843	0.000000	4.640356	1.957025	0.000000	4.630558	2.574017	0.000000	4.655430	2.573465	0.000000	4.686287	3.005266	0.000000	4.607483	3.015527	0.000000	4.772745	3.434424	0.000000	4.538233	3.511717	0.000000	4.822740	3.502902	0.000000	4.570806	3.601241	0.000000	4.614859	3.504734	0.000000	4.332321	3.578458	0.000000
255	4.237567	4.561027	1.976867	0.000000	4.632279	1.958731	0.000000	4.621150	2.576929	0.000000	4.642344	2.578426	0.000000	4.683831	3.008753	0.000000	4.592486	3.019532	0.000000	4.773123	3.435269	0.000000	4.514154	3.513647	0.000000	4.823433	3.503451	0.000000	4.543371	3.604406	0.000000	4.615154	3.503349	0.000000	4.306646	3.574857	0.000000
256	4.254250	4.553730	1.976903	0.000000	4.624189	1.960404	0.000000	4.611225	2.580079	0.000000	4.629361	2.583245	0.000000	4.680121	3.011866	0.000000	4.577131	3.023568	0.000000	4.773657	3.435916	0.000000	4.493708	3.515148	0.000000	4.824388	3.504022	0.000000	4.520619	3.606799	0.000000	4.615138	3.501478	0.000000	4.285013	3.572184	0.000000
257	4.270933	4.546309	1.976976	0.000000	4.616070	1.962081	0.000000	4.600763	2.583264	0.000000	4.616354	2.587741	0.000000	4.675046	3.014458	0.000000	4.561831	3.027517	0.000000	4.774301	3.436307	0.000000	4.476998	3.516572	0.000000	4.825643	3.504575	0.000000	4.502914	3.608518	0.000000	4.614788	3.499208	0.000000	4.267391	3.570902	0.000000
258	4.287617	4.538694	1.977129	0.000000	4.607845	1.963800	0.000000	4.589697	2.586311	0.000000	4.603177	2.591742	0.000000	4.668324	3.016505	0.000000	4.546969	3.031337	0.000000	4.775010	3.436369	0.000000	4.463888	3.518196	0.000000	4.827165	3.505001	0.000000	4.490140	3.609707	0.000000	4.614114	3.496802	0.000000	4.253461	3.571354	0.000000
259	4.304300	4.530797	1.977415	0.000000	4.599428	1.965583	0.000000	4.577950	2.589101	0.000000	4.589722	2.595121	0.000000	4.659569	3.018067	0.000000	4.532822	3.035031	0.000000	4.775700	3.435981	0.000000	4.453948	3.520183	0.000000	4.828809	3.505075	0.000000	4.481656	3.610540	0.000000	4.613216	3.494603	0.000000	4.242655	3.573740	0.000000
260	4.320983	4.522629	1.977885	0.000000	4.590761	1.967439	0.000000	4.565531	2.591593	0.000000	4.576009	2.597842	0.000000	4.648424	3.019247	0.000000	4.519480	3.038614	0.000000	4.776215	3.434960	0.000000	4.446486	3.522545	0.000000	4.830338	3.504437	0.000000	4.476434	3.611179	0.000000	4.612301	3.492889	0.000000	4.234385	3.578072	0.000000
261	4.337667	4.514326	1.978562	0.000000	4.581836	1.969351	0.000000	4.552555	2.593810	0.000000	4.562199	2.599965	0.000000	4.634666	3.020176	0.000000	4.506833	3.042077	0.000000	4.776280	3.433085	0.000000	4.440726	3.525113	0.000000	4.831455	3.502593	0.000000	4.473354	3.611726	0.000000	4.611597	3.491789	0.000000	4.228208	3.584076	0.000000
262	4.354350	4.506050	1.979413	0.000000	4.572667	1.971263	0.000000	4.539160	2.595781	0.000000	4.548543	2.601580	0.000000	4.618208	3.020980	0.000000	4.494719	3.045355	0.000000	4.775479	3.430109	0.000000	4.436074	3.527581	0.000000	4.831789	3.498973	0.000000	4.471491	3.612194	0.000000	4.611183	3.491297	0.000000	4.223780	3.591158	0.000000
263	4.371033	4.497837	1.980350	0.000000	4.563272	1.973076	0.000000	4.525423	2.597505	0.000000	4.535300	2.602761	0.000000	4.599070	3.021748	0.000000	4.483050	3.048329	0.000000	4.773249	3.425772	0.000000	4.432228	3.529629	0.000000	4.830860	3.493034	0.000000	4.470269	3.612520	0.000000	4.610916	3.491343	0.000000	4.220783	3.598524	0.000000
264	4.387717	4.489533	1.981252	0.000000	4.553660	1.974683	0.000000	4.511295	2.598966	0.000000	4.522690	2.603574	0.000000	4.577358	3.022495	0.000000	4.471787	3.050850	0.000000	4.768953	3.419827	0.000000	4.429078	3.531049	0.000000	4.828075	3.484399	0.000000	4.469459	3.612615	0.000000	4.610496	3.491828	0.000000	4.218889	3.605437	0.000000
265	4.404400	4.480898	1.982004	0.000000	4.543800	1.976011	0.000000	4.496632	2.600146	0.000000	4.510870	2.604097	0.000000	4.553287	3.023155	0.000000	4.460829	3.052790	0.000000	4.762014	3.412113	0.000000	4.426557	3.531787	0.000000	4.822817	3.472992	0.000000	4.469078	3.612429	0.000000	4.609602	3.492640	0.000000	4.217772	3.611417	0.000000
266	4.421083	4.471770	1.982511	0.000000	4.533594	1.977035	0.000000	4.481352	2.601026	0.000000	4.499909	2.604401	0.000000	4.527224	3.023572	0.000000	4.449981	3.054079	0.000000	4.752093	3.402652	0.000000	4.424588	3.531910	0.000000	4.814635	3.459133	0.000000	4.469250	3.611963	0.000000	4.608010	3.493628	0.000000	4.217131	3.616285	0.000000
267	4.437767	4.462107	1.982702	0.000000	4.522907	1.977760	0.000000	4.465520	2.601603	0.000000	4.489784	2.604538	0.000000	4.499638	3.023528	0.000000	4.439077	3.054715	0.000000	4.739201	3.391666	0.000000	4.423101	3.531558	0.000000	4.803449	3.443472	0.000000	4.470109	3.611272	0.000000	4.605633	3.494557	0.000000	4.216751	3.620074	0.000000
268	4.454450	4.451991	1.982538	0.000000	4.511629	1.978215	0.000000	4.449306	2.601912	0.000000	4.480409	2.604540	0.000000	4.470947	3.022766	0.000000	4.428217	3.054766	0.000000	4.723631	3.379498	0.000000	4.422064	3.530907	0.000000	4.789589	3.426725	0.000000	4.471725	3.610457	0.000000	4.602432	3.495052	0.000000	4.216535	3.622914	0.000000
269	4.471133	4.441654	1.981999	0.000000	4.499718	1.978445	0.000000	4.432958	2.602020	0.000000	4.471651	2.604431	0.000000	4.441438	3.021023	0.000000	4.417870	3.054358	0.000000	4.705706	3.366495	0.000000	4.421469	3.530131	0.000000	4.773492	3.409435	0.000000	4.474039	3.609636	0.000000	4.598148	3.494583	0.000000	4.216499	3.624946	0.000000
270	4.487817	4.431389	1.981088	0.000000	4.487185	1.978502	0.000000	4.416775	2.601997	0.000000	4.463323	2.604239	0.000000	4.411296	3.018082	0.000000	4.408709	3.053681	0.000000	4.685491	3.352958	0.000000	4.421301	3.529371	0.000000	4.755266	3.391926	0.000000	4.476815	3.608910	0.000000	4.592060	3.492499	0.000000	4.216717	3.626289	0.000000
271	4.504500	4.421342	1.979835	0.000000	4.474076	1.978428	0.000000	4.401001	2.601905	0.000000	4.455226	2.603993	0.000000	4.380569	3.013834	0.000000	4.401338	3.052979	0.000000	4.662642	3.339100	0.000000	4.421519	3.528718	0.000000	4.734457	3.374318	0.000000	4.479663	3.608343	0.000000	4.583024	3.488136	0.000000	4.217281	3.627048	0.000000
272	4.521183	4.411387	1.978312	0.000000	4.460454	1.978253	0.000000	4.385741	2.601787	0.000000	4.447164	2.603721	0.000000	4.349220	3.008318	0.000000	4.396044	3.052511	0.000000	4.636496	3.324949	0.000000	4.422056	3.528207	0.000000	4.710125	3.356530	0.000000	4.482158	3.607942	0.000000	4.569816	3.481016	0.000000	4.218247	3.627328	0.000000
273	4.537867	4.401177	1.976620	0.000000	4.446404	1.977990	0.000000	4.371019	2.601666	0.000000	4.438929	2.603443	0.000000	4.317389	3.001706	0.000000	4.392696	3.052507	0.000000	4.606374	3.310343	0.000000	4.422818	3.527829	0.000000	4.681205	3.338398	0.000000	4.484000	3.607677	0.000000	4.551560	3.471180	0.000000	4.219602	3.627243	0.000000
274	4.554550	4.390314	1.974870	0.000000	4.432055	1.977637	0.000000	4.356848	2.601551	0.000000	4.430310	2.603173	0.000000	4.285710	2.994319	0.000000	4.390838	3.053131	0.000000	4.572048	3.295236	0.000000	4.423698	3.527549	0.000000	4.647084	3.320068	0.000000	4.485096	3.607488	0.000000	4.527884	3.459546	0.000000	4.221232	3.626909	0.000000
275	4.571233	4.378549	1.973163	0.000000	4.417583	1.977184	0.000000	4.343270	2.601442	0.000000	4.421173	2.602922	0.000000	4.255295	2.986657	0.000000	4.389881	3.054432	0.000000	4.534068	3.280295	0.000000	4.424577	3.527329	0.000000	4.608146	3.302561	0.000000	4.485516	3.607318	0.000000	4.498565	3.448024	0.000000	4.222934	3.626441	0.000000
276	4.587917	4.365869	1.971585	0.000000	4.403173	1.976620	0.000000	4.330339	2.601334	0.000000	4.411490	2.602696	0.000000	4.227298	2.979368	0.000000	4.389244	3.056294	0.000000	4.493783	3.267394	0.000000	4.425348	3.527146	0.000000	4.565957	3.288181	0.000000	4.485413	3.607115	0.000000	4.462982	3.439024	0.000000	4.224489	3.625943	0.000000
